# xmcd CD database file
#
# Track frame offsets:
#	150
#	11910
#	24367
#	27535
#	32547
#	36227
#	38857
#	47072
#	51892
#	59497
#	73927
#	80235
#	91252
#	100025
#	114602
#	115957
#	117427
#	120665
#	126315
#	130345
#	132470
#	134692
#	137267
#	139050
#	140762
#	142667
#	148587
#	157627
#	166315
#	174442
#	183592
#	188040
#	201052
#	205650
#	213162
#	220967
#	230935
#	239540
#	249200
#	258357
#	277805
#	292837
#	303510
#	307002
#	311110
#	316895
#
# Disc length: 4311 seconds
#
# Revision: 4
# Processed by: cddbd v1.5.2PL0 Copyright (c) Steve Scherf et al.
# Submitted via: CDex 1.51
#
DISCID=b510d52e
DTITLE=Various Artist - Le Chant des Enfants du Monde - Vol.6 - Amérique du Sud  {Argentine, Bolivie, Brésil, Chili, Équateur, Pérou}
DYEAR=1998
DGENRE=Chants enfants
TTITLE0=Enfants dans la rue - ISA  (Chili)
TTITLE1=Enfants dans la rue - El Beso  (Chili)
TTITLE2=Enfants dans la rue - Yau Yau  (Pérou)
TTITLE3=Enfants dans la rue - Cholita (Pérou)
TTITLE4=Enfants à l'école - Jainoash  (Pérou)
TTITLE5=Enfants à l'école - Pa Ham Neri  (Pérou)
TTITLE6=Enfants à l'école - Escuelaman  (Equateur)
TTITLE7=Enfants à l'école - Curiquingui  (Equateur)
TTITLE8=Enfants à l'école - Phaway Uwiacha  (Pérou)
TTITLE9=Enfants à l'école - Challwashay  (Pérou)
TTITLE10=Enfants à l'école - Mañanitas  (Argentine)
TTITLE11=Enfants à l'école - Morenita  (Argentine)
TTITLE12=Enfants à l'école - El Cafe  (Argentine)
TTITLE13=Enfants à l'école - Escondido  (Argentine)
TTITLE14=Enfants à leurs jeux et comptines - Punya Cuna  (Equateur)
TTITLE15=Enfants à leurs jeux et comptines - El Pato Cuacua  (Pérou)
TTITLE16=Enfants à leurs jeux et comptines - Habia Una Vez  (Pérou)
TTITLE17=Enfants à leurs jeux et comptines - Que Este Ruido ¿  (Pérou)
TTITLE18=Enfants à leurs jeux et comptines - La Mariposa  (Pérou)
TTITLE19=Enfants à leurs jeux et comptines - El Chino Capucino  (Pérou)
TTITLE20=Enfants à leurs jeux et comptines - Arriba Juan  (Equateur)
TTITLE21=Enfants à leurs jeux et comptines - Mariposa  (Chili)
TTITLE22=Enfants à leurs jeux et comptines - Atirei O Pau No Gato  (Brésil)
TTITLE23=Enfants à leurs jeux et comptines - Balao Vermelho  (Brésil)
TTITLE24=Enfants à leurs jeux et comptines - Cetim  (Brésil)
TTITLE25=Enfants à l'église - Taita Diosca  (Equateur)
TTITLE26=Enfants à l'église - Jagua Pachapi  (Equateur)
TTITLE27=Enfants à l'église - Santa Cruz  (Pérou)
TTITLE28=Enfants à l'église - Mama  (Pérou)
TTITLE29=Enfants à l'église - Entremos  (Brésil)
TTITLE30=Enfants aux instruments de musique - Saludo De Chipayas  (Pérou)
TTITLE31=Enfants aux instruments de musique - Aeroplano  (Equateur)
TTITLE32=Enfants aux instruments de musique - Piguyu  (Bolivie)
TTITLE33=Enfants aux instruments de musique - Danza  (Pérou)
TTITLE34=Enfants et adultes - Lumo Mama  (Equateur)
TTITLE35=Enfants et adultes - Tapia Pishco  (Equateur)
TTITLE36=Enfants et adultes - Coplas De Angla  (Equateur)
TTITLE37=Enfants et adultes - Traun  (Argentine)
TTITLE38=Enfants et adultes - Vxar Mapu  (Argentine)
TTITLE39=Enfants et adultes - Yapa Huacag  (Equateur)
TTITLE40=Enfants et adultes - Taquina  (Equateur)
TTITLE41=Enfants et adultes - Shontacobo  (Pérou)
TTITLE42=Enfants et adultes - Ani Sheatimin  (Pérou)
TTITLE43=Enfants et adultes - Baque Parani  (Pérou)
TTITLE44=Enfants et adultes - Guagua Lia  (Equateur)
TTITLE45=Enfants et adultes - Tapiti  (Bolivie)
EXTD=YEAR: 1998
EXTT0=
EXTT1=
EXTT2=
EXTT3=
EXTT4=
EXTT5=
EXTT6=
EXTT7=
EXTT8=
EXTT9=
EXTT10=
EXTT11=
EXTT12=
EXTT13=
EXTT14=
EXTT15=
EXTT16=
EXTT17=
EXTT18=
EXTT19=
EXTT20=
EXTT21=
EXTT22=
EXTT23=
EXTT24=
EXTT25=
EXTT26=
EXTT27=
EXTT28=
EXTT29=
EXTT30=
EXTT31=
EXTT32=
EXTT33=
EXTT34=
EXTT35=
EXTT36=
EXTT37=
EXTT38=
EXTT39=
EXTT40=
EXTT41=
EXTT42=
EXTT43=
EXTT44=
EXTT45=
PLAYORDER=
